<svg class="icon" viewBox="0 0 1024 1024" version="1.1" xmlns="http://www.w3.org/2000/svg"
     width="200" height="200">
    <path d="M943.2 948.4h-552v-14.8h552c36.4 0 66-29.6 66-66V81.2c0-36.4-29.6-66-66-66H80.8c-36.4 0-66 29.6-66 66v786.4c0 36.4 29.6 66 66 66v14.8C36 948.4 0 912 0 867.6V81.2C0 36.8 36 0.8 80.8 0.8h862.8c44.4 0 80.8 36 80.8 80.8V868c-0.4 44-36.4 80.4-81.2 80.4z"
          fill="#4A555F"/>
    <path d="M80.8 32.8h4.4c-13.6 10-22.8 26-22.8 44 0 13.2 4.8 25.2 12.4 34.4H32v-30c0-26.8 22-48.4 48.8-48.4zM992 81.2v30H335.6c8-9.2 12.4-21.6 12.4-34.4 0-18-8.8-34-22.8-44h618c26.8 0 48.8 21.6 48.8 48.4z"
          fill="#F68F6F"/>
    <path d="M7.2 128.8h1009.2v14.8H7.2zM676 762h14.8v33.2H676zM676 843.6h14.8v33.2H676z" fill="#4A555F"/>
    <path d="M676 762h14.8v33.2H676zM676 843.6h14.8v33.2H676z" fill="#4A555F"/>
    <path d="M676 762h14.8v33.2H676zM676 843.6h14.8v33.2H676zM707.6 812h33.2v14.8h-33.2zM626 812h33.2v14.8h-33.2zM227.6 681.2h14.8v17.6h-14.8zM227.6 729.2h14.8v17.6h-14.8z" fill="#4A555F"/>
    <path d="M227.6 681.2h14.8v17.6h-14.8zM227.6 729.2h14.8v17.6h-14.8z" fill="#4A555F"/>
    <path d="M227.6 681.2h14.8v17.6h-14.8zM227.6 729.2h14.8v17.6h-14.8zM250 706.4h17.6v14.8h-17.6zM202 706.4h17.6v14.8h-17.6zM116.8 113.6c-20.4 0-36.8-16.4-36.8-36.8s16.4-36.8 36.8-36.8 36.8 16.4 36.8 36.8-16.4 36.8-36.8 36.8z m0-59.2c-12.4 0-22 10-22 22s10 22 22 22c12.4 0 22-10 22-22s-10-22-22-22zM205.2 113.6c-20.4 0-36.8-16.4-36.8-36.8s16.4-36.8 36.8-36.8 36.8 16.4 36.8 36.8-16.4 36.8-36.8 36.8z m0-59.2c-12.4 0-22 10-22 22s10 22 22 22c12.4 0 22-10 22-22s-9.6-22-22-22zM294 113.6c-20.4 0-36.8-16.4-36.8-36.8s16.4-36.8 36.8-36.8 36.8 16.4 36.8 36.8-16.4 36.8-36.8 36.8z m0-59.2c-12.4 0-22 10-22 22s10 22 22 22c12.4 0 22-10 22-22s-10-22-22-22zM174.8 444.4L120.8 387.6l54-56.4 10.8 10-44.4 46.4 44.4 46.4zM294.8 444.4l-10.4-10.4 44-46.4-44-46.4 10.4-10 54 56.4zM249.016 317.712l13.808 5.328-50.816 131.74-13.808-5.328zM399.2 378.8h516v14.8h-516zM116.8 486.8h798.8v14.8H116.8zM116.8 595.2h798.8v14.8H116.8zM319.6 703.6h596v14.8h-596zM116.8 703.6h44.4v14.8H116.8zM116.8 812h448v14.8h-448zM792 812h123.6v14.8H792zM226.8 858.4h14.8v58.8h-14.8zM226.8 964.4h14.8v58.8h-14.8zM265.2 933.6H324v14.8H265.2zM144.4 933.6h58.8v14.8H144.4zM264.8 924.4l-10.4-10.4 10.4-10.4 10.4 10.4-10.4 10.4z m20.8-20.8l-10.4-10.4 10.4-10.4 10.4 10.4-10.4 10.4zM203.2 925.2l-10.4-10.4 10.4-10.4 10.4 10.4-10.4 10.4z m-20.8-20.8l-10.4-10.4 10.4-10.4 10.4 10.4-10.4 10.4z"
          fill="#4A555F"/>
    <path d="M181.6 1001.2l-10.4-10.4 10.4-10.4 10.4 10.4-10.4 10.4z m20.8-20.8l-10.4-10.4 10.4-10.4 10.4 10.4-10.4 10.4z" fill="#4A555F"/>
    <path d="M284.4 1000.4l-10.4-10.4 10.4-10.4 10.4 10.4-10.4 10.4z m-20.8-20.8l-10.4-10.4 10.4-10.4 10.4 10.4-10.4 10.4z" fill="#4A555F"/>
    <path d="M707.696 782.964l10.464 10.464-10.464 10.468-10.464-10.468zM658.92 782.848l10.464 10.464-10.468 10.464-10.464-10.464zM659 834.588l10.58 10.348-10.352 10.584-10.58-10.352zM707.492 833.66l10.628 10.3-10.3 10.628-10.628-10.3z"
          fill="#4A555F"/>
    <path d="M116.8 214.8h798.8V256H116.8z" fill="#FFD552"/>
    <path d="M922.8 263.6H109.2v-56h813.6v56zM124 248.8h784v-26.4H124v26.4z" fill="#4A555F"/>
</svg>
